<svg width="45" height="21" viewBox="0 0 45 21" fill="none" xmlns="http://www.w3.org/2000/svg">
<mask id="path-1-inside-1_1623_274" fill="white">
<path fill-rule="evenodd" clip-rule="evenodd" d="M1.1302 20.4917H0.989115C0.989115 20.4586 0.95378 20.4087 0.95378 20.3919C0.95378 20.3754 0.95378 20.3423 0.847776 20.3423H0.635768V20.4917H0.529764V20.1427H0.847776C0.989115 20.1427 1.09486 20.1595 1.09486 20.2257C1.09486 20.2756 1.05953 20.2924 1.02445 20.3088C1.05978 20.3255 1.09486 20.3422 1.09486 20.3754V20.4418C1.09486 20.4586 1.09486 20.4586 1.1302 20.4586V20.4917ZM0.989115 20.2425C0.989115 20.1926 0.918446 20.1926 0.883111 20.1926H0.635768V20.2924H0.847776C0.918446 20.2924 0.989115 20.2756 0.989115 20.2425ZM1.58955 20.3089C1.58955 20.1096 1.23646 19.9431 0.777107 19.9431C0.353347 19.9431 0 20.1096 0 20.3089C0 20.525 0.353347 20.6914 0.777107 20.6914C1.2362 20.6913 1.58955 20.525 1.58955 20.3089ZM1.48354 20.3089C1.48354 20.4918 1.16579 20.6248 0.777107 20.6248C0.388425 20.6248 0.106004 20.4917 0.106004 20.3089C0.106004 20.1427 0.388682 19.993 0.777107 19.993C1.16553 19.993 1.48354 20.1427 1.48354 20.3089ZM45 13.5925C45 14.0913 44.3289 14.3238 43.1278 14.3238H40.8323V13.825H43.1278C43.3398 13.825 43.5165 13.8085 43.5874 13.7753C43.6578 13.7419 43.7285 13.692 43.7285 13.6256C43.7285 13.559 43.658 13.4926 43.5874 13.4594C43.5165 13.4261 43.3754 13.4096 43.1634 13.4096C42.0688 13.3928 40.691 13.4261 40.691 12.6947C40.691 12.362 41.1501 11.9963 42.3863 11.9963H44.7527V12.4951H42.5627C42.3512 12.4951 42.2096 12.4951 42.1036 12.5282C41.9976 12.5781 41.9272 12.628 41.9272 12.7112C41.9272 12.7943 42.0332 12.8442 42.1742 12.8776C42.3158 12.8941 42.4572 12.9107 42.6339 12.9107H43.2694C43.9405 12.9107 44.3645 12.9771 44.6472 13.0937C44.8587 13.21 45 13.3598 45 13.5925ZM40.0196 13.0937C39.7369 12.9771 39.3129 12.9107 38.6418 12.9107H38.0063C37.8299 12.9107 37.6883 12.894 37.5472 12.8776C37.4056 12.8442 37.3001 12.7943 37.3001 12.7112C37.3001 12.628 37.3352 12.5781 37.4765 12.5282C37.5825 12.4951 37.7236 12.4951 37.9356 12.4951H40.1256V11.9963H37.7592C36.4874 11.9963 36.0634 12.362 36.0634 12.6947C36.0634 13.4259 37.4412 13.3928 38.5363 13.4096C38.7478 13.4096 38.8894 13.4261 38.9598 13.4594C39.0302 13.4926 39.1014 13.559 39.1014 13.6256C39.1014 13.692 39.0305 13.7419 38.9598 13.7753C38.8538 13.8085 38.7127 13.825 38.5007 13.825H36.2047V14.3238H38.5007C39.7013 14.3238 40.3727 14.0912 40.3727 13.5925C40.3727 13.3598 40.2316 13.21 40.0196 13.0937ZM35.4983 13.8418H32.7084V13.3763H35.4279V12.911H32.7084V12.4786H35.4983V11.9965H31.5426V14.3239H35.4983V13.8418ZM30.2708 12.1129C29.8821 12.0132 29.423 11.9964 28.8226 11.9964H26.1031V14.3238H27.3037V13.476H28.5755C28.999 13.476 29.2466 13.4927 29.4233 13.5757C29.6353 13.692 29.6353 13.8916 29.6353 14.0413V14.3238H30.8006V13.8749C30.8006 13.6588 30.7655 13.559 30.6242 13.4427C30.5182 13.376 30.3067 13.293 30.024 13.2431C30.3415 13.1935 30.8718 12.9939 30.8718 12.628C30.8715 12.3622 30.6595 12.2125 30.2708 12.1129ZM23.5598 11.9964H19.7803L18.2614 12.7612L16.8132 11.9964H12.0448V14.3238H16.7428L18.2616 13.559L19.7098 14.3238H22.0058V13.5426H23.4894C24.5136 13.5426 25.5383 13.4096 25.5383 12.7612C25.538 12.1294 24.4782 11.9964 23.5598 11.9964ZM29.317 12.9608C29.1406 12.9939 28.9639 12.9939 28.7519 12.9939L27.3037 13.0106V12.4785H28.7519C28.9639 12.4785 29.176 12.4785 29.317 12.5283C29.4586 12.5617 29.5641 12.6281 29.5641 12.7279C29.5641 12.8277 29.4586 12.9109 29.317 12.9608ZM23.5598 13.0771H22.0056V12.4785H23.5598C23.9838 12.4785 24.2662 12.5617 24.2662 12.7612C24.2662 12.9608 23.9835 13.0771 23.5598 13.0771ZM19.0031 13.1601L20.8398 12.2459V14.1244L19.0031 13.1601ZM16.1421 13.8418H13.2103V13.3763H15.824V12.911H13.2103V12.4786H16.1774L17.4843 13.1602L16.1421 13.8418ZM41.7149 10.3173H40.0196L37.7943 8.57161V10.3173H35.3928L34.9332 9.80183H32.4608L32.0017 10.3173H30.6239C30.0588 10.3173 29.317 10.2507 28.8935 10.0512C28.5048 9.85172 28.2928 9.58574 28.2928 9.17009C28.2928 8.82096 28.3988 8.50509 28.9284 8.25575C29.2814 8.0728 29.9175 7.98977 30.7297 7.98977H31.8598V8.48858H30.7297C30.3061 8.48858 30.0586 8.52184 29.8115 8.62163C29.5995 8.72141 29.4935 8.90423 29.4935 9.15358C29.4935 9.40292 29.5995 9.58587 29.8115 9.70228C29.9879 9.78532 30.3061 9.81858 30.6236 9.81858H31.1537L32.849 7.98989H34.6152L36.5932 10.1843V7.98977H38.43L40.514 9.60238V7.98977H41.7146V10.3173H41.7149ZM27.6924 7.98977H26.4918V10.3173H27.6924V7.98977ZM25.1844 8.08956C24.7957 7.98977 24.3722 7.98977 23.7718 7.98977H21.0518V10.3173H22.2173V9.46933H23.4889C23.9129 9.46933 24.1956 9.48596 24.372 9.56911C24.584 9.68553 24.5484 9.8851 24.5484 10.018V10.3173H25.749V9.85172C25.749 9.65227 25.7139 9.55248 25.5375 9.43607C25.4315 9.36954 25.2195 9.28639 24.9724 9.23661C25.2899 9.17009 25.8202 8.98727 25.8202 8.62151C25.8204 8.35553 25.5728 8.20585 25.1844 8.08956ZM20.204 9.83521H17.4489V9.36966H20.1687V8.8876H17.4489V8.47195H20.204V7.98989H16.2481V10.3174H20.204V9.83521ZM15.365 7.98977H13.4223L11.9741 9.56911L10.4199 7.98977H8.51259V10.1842L6.49928 7.98977H4.73331L2.614 10.3173H3.88554L4.34463 9.80183H6.81703L7.27613 10.3173H9.67812V8.48858L11.4088 10.3173H12.4329L14.1638 8.48858V10.3173H15.3647V7.98977H15.365ZM34.5097 9.30314L33.697 8.38879L32.8848 9.30314H34.5097ZM24.2662 8.9375C24.0898 8.98739 23.9131 8.98739 23.6658 8.98739H22.2173V8.47207H23.6655C23.8775 8.47207 24.1244 8.47207 24.266 8.50533C24.4071 8.55522 24.478 8.62175 24.478 8.72141C24.478 8.82108 24.4073 8.90411 24.2662 8.9375ZM4.76839 9.30314L5.58083 8.38879L6.39327 9.30314H4.76839ZM44.7176 0.691406H2.57841V9.07042L4.02662 7.52434H7.09946L7.52347 7.90674V7.52434H11.1263L11.9388 8.35553L12.7159 7.52434H24.1956C24.7251 7.52434 25.1842 7.57424 25.5378 7.70716V7.52434H28.6813V7.70716C29.2108 7.57411 29.8819 7.52434 30.6592 7.52434H35.2156L35.6396 7.90674V7.52434H38.9952L39.4898 7.90674V7.52434H42.7744V10.7828H39.4545L38.819 10.2841V10.7828H34.6861L34.227 10.2509H33.2023L32.7432 10.7828H30.5888C29.7411 10.7828 29.105 10.683 28.6815 10.5834V10.7828H23.5598V10.0347C23.5598 9.93488 23.5245 9.91824 23.3831 9.91824H23.2067V10.7827H13.3163V10.367L12.9632 10.7827H10.8792L10.5262 10.3837V10.7827H6.53461L6.11085 10.2507H5.0864L4.62731 10.7827H2.57841V20.6081H44.7176V14.6396C44.2585 14.7394 43.6225 14.7893 42.9867 14.7893H39.9136V14.5898C39.5605 14.7229 38.9245 14.7893 38.3243 14.7893H28.6459V14.0413C28.6459 13.9415 28.6109 13.9415 28.4339 13.9415H28.2575V14.7893H25.0784V13.9082C24.5489 14.0245 23.9482 14.0245 23.4184 14.0245H23.0651V14.7893H19.1798L18.2616 14.2905L17.2374 14.7893H10.985V11.531H17.3429L18.2614 12.0295L19.2505 11.531H23.5245C24.0186 11.531 24.8313 11.5641 25.1844 11.7303V11.531H28.999C29.3877 11.531 30.1297 11.5641 30.6239 11.7303V11.531H36.3814V11.7304C36.6994 11.5974 37.3001 11.5311 37.8296 11.5311H41.0438V11.7304C41.3974 11.6141 41.8916 11.5311 42.5276 11.5311H44.7176V0.691406Z"/>
</mask>
<path fill-rule="evenodd" clip-rule="evenodd" d="M1.1302 20.4917H0.989115C0.989115 20.4586 0.95378 20.4087 0.95378 20.3919C0.95378 20.3754 0.95378 20.3423 0.847776 20.3423H0.635768V20.4917H0.529764V20.1427H0.847776C0.989115 20.1427 1.09486 20.1595 1.09486 20.2257C1.09486 20.2756 1.05953 20.2924 1.02445 20.3088C1.05978 20.3255 1.09486 20.3422 1.09486 20.3754V20.4418C1.09486 20.4586 1.09486 20.4586 1.1302 20.4586V20.4917ZM0.989115 20.2425C0.989115 20.1926 0.918446 20.1926 0.883111 20.1926H0.635768V20.2924H0.847776C0.918446 20.2924 0.989115 20.2756 0.989115 20.2425ZM1.58955 20.3089C1.58955 20.1096 1.23646 19.9431 0.777107 19.9431C0.353347 19.9431 0 20.1096 0 20.3089C0 20.525 0.353347 20.6914 0.777107 20.6914C1.2362 20.6913 1.58955 20.525 1.58955 20.3089ZM1.48354 20.3089C1.48354 20.4918 1.16579 20.6248 0.777107 20.6248C0.388425 20.6248 0.106004 20.4917 0.106004 20.3089C0.106004 20.1427 0.388682 19.993 0.777107 19.993C1.16553 19.993 1.48354 20.1427 1.48354 20.3089ZM45 13.5925C45 14.0913 44.3289 14.3238 43.1278 14.3238H40.8323V13.825H43.1278C43.3398 13.825 43.5165 13.8085 43.5874 13.7753C43.6578 13.7419 43.7285 13.692 43.7285 13.6256C43.7285 13.559 43.658 13.4926 43.5874 13.4594C43.5165 13.4261 43.3754 13.4096 43.1634 13.4096C42.0688 13.3928 40.691 13.4261 40.691 12.6947C40.691 12.362 41.1501 11.9963 42.3863 11.9963H44.7527V12.4951H42.5627C42.3512 12.4951 42.2096 12.4951 42.1036 12.5282C41.9976 12.5781 41.9272 12.628 41.9272 12.7112C41.9272 12.7943 42.0332 12.8442 42.1742 12.8776C42.3158 12.8941 42.4572 12.9107 42.6339 12.9107H43.2694C43.9405 12.9107 44.3645 12.9771 44.6472 13.0937C44.8587 13.21 45 13.3598 45 13.5925ZM40.0196 13.0937C39.7369 12.9771 39.3129 12.9107 38.6418 12.9107H38.0063C37.8299 12.9107 37.6883 12.894 37.5472 12.8776C37.4056 12.8442 37.3001 12.7943 37.3001 12.7112C37.3001 12.628 37.3352 12.5781 37.4765 12.5282C37.5825 12.4951 37.7236 12.4951 37.9356 12.4951H40.1256V11.9963H37.7592C36.4874 11.9963 36.0634 12.362 36.0634 12.6947C36.0634 13.4259 37.4412 13.3928 38.5363 13.4096C38.7478 13.4096 38.8894 13.4261 38.9598 13.4594C39.0302 13.4926 39.1014 13.559 39.1014 13.6256C39.1014 13.692 39.0305 13.7419 38.9598 13.7753C38.8538 13.8085 38.7127 13.825 38.5007 13.825H36.2047V14.3238H38.5007C39.7013 14.3238 40.3727 14.0912 40.3727 13.5925C40.3727 13.3598 40.2316 13.21 40.0196 13.0937ZM35.4983 13.8418H32.7084V13.3763H35.4279V12.911H32.7084V12.4786H35.4983V11.9965H31.5426V14.3239H35.4983V13.8418ZM30.2708 12.1129C29.8821 12.0132 29.423 11.9964 28.8226 11.9964H26.1031V14.3238H27.3037V13.476H28.5755C28.999 13.476 29.2466 13.4927 29.4233 13.5757C29.6353 13.692 29.6353 13.8916 29.6353 14.0413V14.3238H30.8006V13.8749C30.8006 13.6588 30.7655 13.559 30.6242 13.4427C30.5182 13.376 30.3067 13.293 30.024 13.2431C30.3415 13.1935 30.8718 12.9939 30.8718 12.628C30.8715 12.3622 30.6595 12.2125 30.2708 12.1129ZM23.5598 11.9964H19.7803L18.2614 12.7612L16.8132 11.9964H12.0448V14.3238H16.7428L18.2616 13.559L19.7098 14.3238H22.0058V13.5426H23.4894C24.5136 13.5426 25.5383 13.4096 25.5383 12.7612C25.538 12.1294 24.4782 11.9964 23.5598 11.9964ZM29.317 12.9608C29.1406 12.9939 28.9639 12.9939 28.7519 12.9939L27.3037 13.0106V12.4785H28.7519C28.9639 12.4785 29.176 12.4785 29.317 12.5283C29.4586 12.5617 29.5641 12.6281 29.5641 12.7279C29.5641 12.8277 29.4586 12.9109 29.317 12.9608ZM23.5598 13.0771H22.0056V12.4785H23.5598C23.9838 12.4785 24.2662 12.5617 24.2662 12.7612C24.2662 12.9608 23.9835 13.0771 23.5598 13.0771ZM19.0031 13.1601L20.8398 12.2459V14.1244L19.0031 13.1601ZM16.1421 13.8418H13.2103V13.3763H15.824V12.911H13.2103V12.4786H16.1774L17.4843 13.1602L16.1421 13.8418ZM41.7149 10.3173H40.0196L37.7943 8.57161V10.3173H35.3928L34.9332 9.80183H32.4608L32.0017 10.3173H30.6239C30.0588 10.3173 29.317 10.2507 28.8935 10.0512C28.5048 9.85172 28.2928 9.58574 28.2928 9.17009C28.2928 8.82096 28.3988 8.50509 28.9284 8.25575C29.2814 8.0728 29.9175 7.98977 30.7297 7.98977H31.8598V8.48858H30.7297C30.3061 8.48858 30.0586 8.52184 29.8115 8.62163C29.5995 8.72141 29.4935 8.90423 29.4935 9.15358C29.4935 9.40292 29.5995 9.58587 29.8115 9.70228C29.9879 9.78532 30.3061 9.81858 30.6236 9.81858H31.1537L32.849 7.98989H34.6152L36.5932 10.1843V7.98977H38.43L40.514 9.60238V7.98977H41.7146V10.3173H41.7149ZM27.6924 7.98977H26.4918V10.3173H27.6924V7.98977ZM25.1844 8.08956C24.7957 7.98977 24.3722 7.98977 23.7718 7.98977H21.0518V10.3173H22.2173V9.46933H23.4889C23.9129 9.46933 24.1956 9.48596 24.372 9.56911C24.584 9.68553 24.5484 9.8851 24.5484 10.018V10.3173H25.749V9.85172C25.749 9.65227 25.7139 9.55248 25.5375 9.43607C25.4315 9.36954 25.2195 9.28639 24.9724 9.23661C25.2899 9.17009 25.8202 8.98727 25.8202 8.62151C25.8204 8.35553 25.5728 8.20585 25.1844 8.08956ZM20.204 9.83521H17.4489V9.36966H20.1687V8.8876H17.4489V8.47195H20.204V7.98989H16.2481V10.3174H20.204V9.83521ZM15.365 7.98977H13.4223L11.9741 9.56911L10.4199 7.98977H8.51259V10.1842L6.49928 7.98977H4.73331L2.614 10.3173H3.88554L4.34463 9.80183H6.81703L7.27613 10.3173H9.67812V8.48858L11.4088 10.3173H12.4329L14.1638 8.48858V10.3173H15.3647V7.98977H15.365ZM34.5097 9.30314L33.697 8.38879L32.8848 9.30314H34.5097ZM24.2662 8.9375C24.0898 8.98739 23.9131 8.98739 23.6658 8.98739H22.2173V8.47207H23.6655C23.8775 8.47207 24.1244 8.47207 24.266 8.50533C24.4071 8.55522 24.478 8.62175 24.478 8.72141C24.478 8.82108 24.4073 8.90411 24.2662 8.9375ZM4.76839 9.30314L5.58083 8.38879L6.39327 9.30314H4.76839ZM44.7176 0.691406H2.57841V9.07042L4.02662 7.52434H7.09946L7.52347 7.90674V7.52434H11.1263L11.9388 8.35553L12.7159 7.52434H24.1956C24.7251 7.52434 25.1842 7.57424 25.5378 7.70716V7.52434H28.6813V7.70716C29.2108 7.57411 29.8819 7.52434 30.6592 7.52434H35.2156L35.6396 7.90674V7.52434H38.9952L39.4898 7.90674V7.52434H42.7744V10.7828H39.4545L38.819 10.2841V10.7828H34.6861L34.227 10.2509H33.2023L32.7432 10.7828H30.5888C29.7411 10.7828 29.105 10.683 28.6815 10.5834V10.7828H23.5598V10.0347C23.5598 9.93488 23.5245 9.91824 23.3831 9.91824H23.2067V10.7827H13.3163V10.367L12.9632 10.7827H10.8792L10.5262 10.3837V10.7827H6.53461L6.11085 10.2507H5.0864L4.62731 10.7827H2.57841V20.6081H44.7176V14.6396C44.2585 14.7394 43.6225 14.7893 42.9867 14.7893H39.9136V14.5898C39.5605 14.7229 38.9245 14.7893 38.3243 14.7893H28.6459V14.0413C28.6459 13.9415 28.6109 13.9415 28.4339 13.9415H28.2575V14.7893H25.0784V13.9082C24.5489 14.0245 23.9482 14.0245 23.4184 14.0245H23.0651V14.7893H19.1798L18.2616 14.2905L17.2374 14.7893H10.985V11.531H17.3429L18.2614 12.0295L19.2505 11.531H23.5245C24.0186 11.531 24.8313 11.5641 25.1844 11.7303V11.531H28.999C29.3877 11.531 30.1297 11.5641 30.6239 11.7303V11.531H36.3814V11.7304C36.6994 11.5974 37.3001 11.5311 37.8296 11.5311H41.0438V11.7304C41.3974 11.6141 41.8916 11.5311 42.5276 11.5311H44.7176V0.691406Z" stroke="url(#paint0_linear_1623_274)" stroke-width="2" mask="url(#path-1-inside-1_1623_274)"/>
<defs>
<linearGradient id="paint0_linear_1623_274" x1="22.5" y1="0.691406" x2="22.5" y2="20.6914" gradientUnits="userSpaceOnUse">
<stop stop-color="white"/>
<stop offset="1" stop-color="white" stop-opacity="0.75"/>
</linearGradient>
</defs>
</svg>
