<svg width="45" height="21" viewBox="0 0 45 21" fill="none" xmlns="http://www.w3.org/2000/svg">
<path d="M1.40401 16.7111C1.20282 16.4223 0.934563 15.9609 0.768873 15.6192C-0.197647 13.6185 -0.241042 11.5473 0.571624 9.56073C1.46714 7.38038 3.17925 5.7143 5.39239 4.86189C8.1736 3.79461 11.2467 4.00243 13.9135 5.4149C15.6059 6.2814 16.8052 7.6199 17.7165 9.51494C17.8309 9.75798 17.9335 10.0151 18.0361 10.237L1.40401 16.7111ZM6.95855 8.07781C4.98211 8.83512 3.96431 10.4906 4.17734 12.4279L12.5407 9.21201C11.1008 7.70444 9.23086 7.20426 6.95855 8.07781V8.07781ZM13.5822 15.0732C13.5782 15.0732 13.5782 15.0768 13.5782 15.0768L13.4046 14.9711C12.9036 15.6932 12.1265 16.2814 11.1442 16.6618C9.27425 17.3874 7.5424 17.2007 6.29579 16.225L6.18138 16.38C6.18138 16.38 6.18139 16.3765 6.17744 16.3765L4.05504 19.212C4.58367 19.5396 5.1478 19.8143 5.73955 20.0362C8.08287 20.9063 10.4814 20.864 12.8445 19.9482C14.5526 19.286 15.8939 18.2786 16.8092 17L13.5822 15.0732ZM23.847 0.691406V16.4505L26.5927 17.4438L25.0344 20.6914L22.0047 19.5642C21.3262 19.3001 20.8607 18.8985 20.5135 18.4441C20.1782 17.9827 19.9296 17.3452 19.9296 16.4927V0.691406H23.847ZM30.9559 12.4385C30.9559 11.0965 31.6226 9.89183 32.6719 9.07464L29.8552 6.27084C27.9458 7.77841 26.7426 9.97989 26.7426 12.4315C26.7387 14.8865 27.9419 17.0915 29.8473 18.5991L32.6601 15.7953C31.6147 14.9746 30.9559 13.777 30.9559 12.4385V12.4385ZM35.9581 16.9084C35.4058 16.9084 34.8693 16.8238 34.3722 16.6759L33.027 20.2441C33.9462 20.5188 34.9285 20.6703 35.9542 20.6703C40.412 20.6738 44.1321 17.8489 44.996 14.0975L40.8617 13.3437C40.3923 15.3832 38.3764 16.9119 35.9581 16.9084V16.9084ZM35.9699 4.20673C34.9482 4.20673 33.9659 4.35467 33.0467 4.62589L34.3801 8.19757C34.8811 8.04963 35.4137 7.96862 35.966 7.96862C38.3882 7.97214 40.408 9.50789 40.8657 11.5509L45 10.8041C44.1518 7.04576 40.4317 4.21025 35.9699 4.20673V4.20673Z" fill="url(#paint0_linear_1622_233)"/>
<defs>
<linearGradient id="paint0_linear_1622_233" x1="22.5" y1="0.691406" x2="22.5" y2="20.6914" gradientUnits="userSpaceOnUse">
<stop stop-color="white"/>
<stop offset="1" stop-color="white" stop-opacity="0.75"/>
</linearGradient>
</defs>
</svg>
