<svg width="45" height="16" viewBox="0 0 45 16" fill="none" xmlns="http://www.w3.org/2000/svg">
<mask id="path-1-inside-1_1623_341" fill="white">
<path d="M9.72145 2.10968C9.95756 1.88311 10.2617 0.851287 9.91425 0.421694C9.80422 0.285696 9.62019 0.246223 9.36344 0.3067C9.1253 0.362707 8.98832 0.475468 8.89529 0.651983C8.7458 0.935746 8.60861 1.7918 8.84022 2.10983C9.06585 2.41936 9.57121 2.25372 9.72145 2.10968ZM6.36163 0.421694C6.19246 1.95074 6.00191 3.45 5.81082 4.94851C4.58398 4.96653 3.33138 5.03282 2.14806 4.91008C2.37155 3.44404 2.53184 1.88982 2.75394 0.421694H1.43204C0.958864 4.16142 0.528354 7.96087 0 11.6237H1.34949C1.56111 9.74493 1.75915 7.84677 2.03792 6.06107C3.18851 6.02159 4.56752 5.95278 5.6732 6.0995C5.44522 7.95595 5.16976 9.74582 4.95718 11.6237H6.30667C6.74039 7.82874 7.1971 4.06623 7.73882 0.421694H6.36163ZM25.4466 3.64424C24.3967 3.05347 23.5711 4.05178 23.1884 4.98694C23.2753 4.5709 23.311 4.08366 23.3813 3.64424H22.3348C22.0789 6.40814 21.7019 9.00298 21.3434 11.6237H22.5277C22.6937 10.0682 22.7653 7.97115 23.1335 6.48306C23.4277 5.29394 24.1979 4.28088 25.3091 4.83351C25.3245 4.39483 25.4147 4.05998 25.4466 3.64424ZM26.1075 9.74404C25.9983 9.35109 25.9702 8.70253 25.9974 8.20933C26.0586 7.10094 26.3486 5.75139 26.7961 5.14036C27.4137 4.29712 28.6328 4.43669 29.6052 4.91022C29.6353 4.45367 29.7012 4.04642 29.743 3.60595C28.1482 3.24309 26.6349 3.46891 25.8324 4.6418C25.0468 5.78997 24.532 8.42889 24.8959 10.0893C25.3219 12.0323 27.2324 12.1379 28.7791 11.3937C28.8475 11.0032 28.8838 10.5678 28.9443 10.1662C28.099 10.7777 26.4831 11.0955 26.1075 9.74404ZM39.4092 3.68252C38.3626 2.95352 37.4912 4.17676 37.151 4.91008C37.2479 4.53381 37.2535 4.02989 37.3437 3.64409H36.2973C36.0151 6.38401 35.6751 9.04319 35.2784 11.6236H36.4902C36.4978 10.566 36.647 9.78366 36.7654 8.74662C37.0187 6.53192 37.3906 4.10332 39.2442 4.83336C39.3055 4.45888 39.3311 4.03406 39.4092 3.68252ZM8.50969 3.64424C8.47761 3.65064 8.47975 3.70486 8.4821 3.75923C8.22119 6.47755 7.86799 9.06762 7.49073 11.6236H8.6749C8.95945 8.88694 9.28538 6.20824 9.69386 3.64409L8.50969 3.64424ZM18.9197 3.49081C18.064 3.58272 17.3407 3.92562 16.8267 4.68009C16.1962 5.60526 15.6857 7.65089 15.8353 9.5139C16.0488 12.1716 18.4243 12.0761 20.3242 11.432C20.3566 10.9655 20.4377 10.5667 20.4895 10.1276C19.7068 10.5356 18.3478 11.1051 17.5426 10.3963C16.9348 9.86082 16.9313 8.50546 17.1295 7.32721C18.4065 7.2706 19.7338 7.28133 21.0126 7.32721C21.0936 6.49215 21.3258 5.58172 21.1227 4.75695C20.8549 3.66807 19.8958 3.38594 18.9197 3.49081ZM20.0488 6.40635H17.2671C17.3553 5.51559 17.9306 4.53649 18.837 4.48823C19.6901 4.4428 20.3009 4.92452 20.0488 6.40635ZM14.4308 3.64424C13.4285 3.11976 12.207 3.74583 11.6774 4.34136C11.6793 4.36757 11.6647 4.37115 11.6491 4.37308C11.6581 4.36251 11.6679 4.35193 11.6774 4.34136C11.6773 4.33916 11.6771 4.33697 11.6768 4.3348C11.6857 4.07875 11.7504 3.90029 11.7594 3.64424H10.7404C10.3158 7.57954 9.81224 11.4048 9.28089 15.1914H10.4651C10.6365 13.7167 10.7496 12.1609 10.9884 10.7797C11.2588 12.2324 13.0247 11.9549 13.7699 11.3936C15.3073 10.2353 16.4932 4.72328 14.4308 3.64424ZM13.4945 10.1276C12.8609 11.0623 11.3033 11.0483 11.1811 9.47532C11.1279 8.79101 11.3109 8.07348 11.4016 7.36549C11.493 6.64885 11.559 5.96127 11.6492 5.33222C12.2733 4.27075 14.1071 4.1425 14.2931 5.90764C14.4545 7.44012 14.0191 9.35347 13.4945 10.1276ZM43.8155 0.191555C43.714 1.43118 43.5783 2.62328 43.4025 3.75923C40.4977 2.47835 38.7163 5.45556 38.7484 9.13019C38.7547 9.84086 38.8425 10.5456 39.1614 11.0483C39.7114 11.9143 41.2857 12.1218 42.0807 11.3934C42.2345 11.2525 42.3918 10.996 42.4937 10.8182C42.5704 10.6843 42.692 10.3335 42.7141 10.4345C42.6722 10.8237 42.6097 11.1845 42.6041 11.6236H43.6781C43.8852 7.48733 44.5251 3.95451 45 0.191406H43.8156V0.191555H43.8155ZM41.1718 10.7413C40.3746 10.7651 39.9782 10.0779 39.9599 8.93833C39.9282 6.9426 40.5566 4.72537 41.8328 4.52651C42.4269 4.43401 42.8571 4.62646 43.2924 4.83351C42.8927 7.07532 43.0369 10.6856 41.1718 10.7413ZM30.9545 3.64424C30.8962 4.10005 30.8067 4.51251 30.7342 4.94851C31.433 4.70437 33.609 3.956 33.8187 5.25536C33.8883 5.68704 33.7682 6.14568 33.681 6.48306C31.7134 6.22343 30.1096 6.67879 29.6877 8.63133C29.4052 9.93917 29.7193 11.2262 30.3212 11.5854C31.4802 12.2772 32.89 11.4848 33.378 10.3963C33.3274 10.773 33.2793 11.1539 33.2956 11.6237H34.3144C34.3254 10.2643 34.4674 9.164 34.6174 7.94076C34.7453 6.8991 34.986 5.86787 34.9479 4.94851C34.8602 2.84299 32.3562 3.58778 30.9545 3.64424ZM32.8823 10.0892C32.272 10.9214 30.559 11.1578 30.7342 9.16847C30.8797 7.51623 32.1712 7.16514 33.5706 7.40362C33.4667 8.30749 33.3473 9.45506 32.8823 10.0892Z"/>
</mask>
<path d="M9.72145 2.10968C9.95756 1.88311 10.2617 0.851287 9.91425 0.421694C9.80422 0.285696 9.62019 0.246223 9.36344 0.3067C9.1253 0.362707 8.98832 0.475468 8.89529 0.651983C8.7458 0.935746 8.60861 1.7918 8.84022 2.10983C9.06585 2.41936 9.57121 2.25372 9.72145 2.10968ZM6.36163 0.421694C6.19246 1.95074 6.00191 3.45 5.81082 4.94851C4.58398 4.96653 3.33138 5.03282 2.14806 4.91008C2.37155 3.44404 2.53184 1.88982 2.75394 0.421694H1.43204C0.958864 4.16142 0.528354 7.96087 0 11.6237H1.34949C1.56111 9.74493 1.75915 7.84677 2.03792 6.06107C3.18851 6.02159 4.56752 5.95278 5.6732 6.0995C5.44522 7.95595 5.16976 9.74582 4.95718 11.6237H6.30667C6.74039 7.82874 7.1971 4.06623 7.73882 0.421694H6.36163ZM25.4466 3.64424C24.3967 3.05347 23.5711 4.05178 23.1884 4.98694C23.2753 4.5709 23.311 4.08366 23.3813 3.64424H22.3348C22.0789 6.40814 21.7019 9.00298 21.3434 11.6237H22.5277C22.6937 10.0682 22.7653 7.97115 23.1335 6.48306C23.4277 5.29394 24.1979 4.28088 25.3091 4.83351C25.3245 4.39483 25.4147 4.05998 25.4466 3.64424ZM26.1075 9.74404C25.9983 9.35109 25.9702 8.70253 25.9974 8.20933C26.0586 7.10094 26.3486 5.75139 26.7961 5.14036C27.4137 4.29712 28.6328 4.43669 29.6052 4.91022C29.6353 4.45367 29.7012 4.04642 29.743 3.60595C28.1482 3.24309 26.6349 3.46891 25.8324 4.6418C25.0468 5.78997 24.532 8.42889 24.8959 10.0893C25.3219 12.0323 27.2324 12.1379 28.7791 11.3937C28.8475 11.0032 28.8838 10.5678 28.9443 10.1662C28.099 10.7777 26.4831 11.0955 26.1075 9.74404ZM39.4092 3.68252C38.3626 2.95352 37.4912 4.17676 37.151 4.91008C37.2479 4.53381 37.2535 4.02989 37.3437 3.64409H36.2973C36.0151 6.38401 35.6751 9.04319 35.2784 11.6236H36.4902C36.4978 10.566 36.647 9.78366 36.7654 8.74662C37.0187 6.53192 37.3906 4.10332 39.2442 4.83336C39.3055 4.45888 39.3311 4.03406 39.4092 3.68252ZM8.50969 3.64424C8.47761 3.65064 8.47975 3.70486 8.4821 3.75923C8.22119 6.47755 7.86799 9.06762 7.49073 11.6236H8.6749C8.95945 8.88694 9.28538 6.20824 9.69386 3.64409L8.50969 3.64424ZM18.9197 3.49081C18.064 3.58272 17.3407 3.92562 16.8267 4.68009C16.1962 5.60526 15.6857 7.65089 15.8353 9.5139C16.0488 12.1716 18.4243 12.0761 20.3242 11.432C20.3566 10.9655 20.4377 10.5667 20.4895 10.1276C19.7068 10.5356 18.3478 11.1051 17.5426 10.3963C16.9348 9.86082 16.9313 8.50546 17.1295 7.32721C18.4065 7.2706 19.7338 7.28133 21.0126 7.32721C21.0936 6.49215 21.3258 5.58172 21.1227 4.75695C20.8549 3.66807 19.8958 3.38594 18.9197 3.49081ZM20.0488 6.40635H17.2671C17.3553 5.51559 17.9306 4.53649 18.837 4.48823C19.6901 4.4428 20.3009 4.92452 20.0488 6.40635ZM14.4308 3.64424C13.4285 3.11976 12.207 3.74583 11.6774 4.34136C11.6793 4.36757 11.6647 4.37115 11.6491 4.37308C11.6581 4.36251 11.6679 4.35193 11.6774 4.34136C11.6773 4.33916 11.6771 4.33697 11.6768 4.3348C11.6857 4.07875 11.7504 3.90029 11.7594 3.64424H10.7404C10.3158 7.57954 9.81224 11.4048 9.28089 15.1914H10.4651C10.6365 13.7167 10.7496 12.1609 10.9884 10.7797C11.2588 12.2324 13.0247 11.9549 13.7699 11.3936C15.3073 10.2353 16.4932 4.72328 14.4308 3.64424ZM13.4945 10.1276C12.8609 11.0623 11.3033 11.0483 11.1811 9.47532C11.1279 8.79101 11.3109 8.07348 11.4016 7.36549C11.493 6.64885 11.559 5.96127 11.6492 5.33222C12.2733 4.27075 14.1071 4.1425 14.2931 5.90764C14.4545 7.44012 14.0191 9.35347 13.4945 10.1276ZM43.8155 0.191555C43.714 1.43118 43.5783 2.62328 43.4025 3.75923C40.4977 2.47835 38.7163 5.45556 38.7484 9.13019C38.7547 9.84086 38.8425 10.5456 39.1614 11.0483C39.7114 11.9143 41.2857 12.1218 42.0807 11.3934C42.2345 11.2525 42.3918 10.996 42.4937 10.8182C42.5704 10.6843 42.692 10.3335 42.7141 10.4345C42.6722 10.8237 42.6097 11.1845 42.6041 11.6236H43.6781C43.8852 7.48733 44.5251 3.95451 45 0.191406H43.8156V0.191555H43.8155ZM41.1718 10.7413C40.3746 10.7651 39.9782 10.0779 39.9599 8.93833C39.9282 6.9426 40.5566 4.72537 41.8328 4.52651C42.4269 4.43401 42.8571 4.62646 43.2924 4.83351C42.8927 7.07532 43.0369 10.6856 41.1718 10.7413ZM30.9545 3.64424C30.8962 4.10005 30.8067 4.51251 30.7342 4.94851C31.433 4.70437 33.609 3.956 33.8187 5.25536C33.8883 5.68704 33.7682 6.14568 33.681 6.48306C31.7134 6.22343 30.1096 6.67879 29.6877 8.63133C29.4052 9.93917 29.7193 11.2262 30.3212 11.5854C31.4802 12.2772 32.89 11.4848 33.378 10.3963C33.3274 10.773 33.2793 11.1539 33.2956 11.6237H34.3144C34.3254 10.2643 34.4674 9.164 34.6174 7.94076C34.7453 6.8991 34.986 5.86787 34.9479 4.94851C34.8602 2.84299 32.3562 3.58778 30.9545 3.64424ZM32.8823 10.0892C32.272 10.9214 30.559 11.1578 30.7342 9.16847C30.8797 7.51623 32.1712 7.16514 33.5706 7.40362C33.4667 8.30749 33.3473 9.45506 32.8823 10.0892Z" stroke="url(#paint0_linear_1623_341)" stroke-width="2" mask="url(#path-1-inside-1_1623_341)"/>
<defs>
<linearGradient id="paint0_linear_1623_341" x1="22.5" y1="0.191406" x2="22.5" y2="15.1914" gradientUnits="userSpaceOnUse">
<stop stop-color="white"/>
<stop offset="1" stop-color="white" stop-opacity="0.75"/>
</linearGradient>
</defs>
</svg>
